<svg xmlns="http://www.w3.org/2000/svg" xmlns:xlink="http://www.w3.org/1999/xlink" width="500" zoomAndPan="magnify" viewBox="0 0 375 374.999991" height="500" preserveAspectRatio="xMidYMid meet" version="1.0"><defs><clipPath id="44b08ea791"><path d="M 0 14.296875 L 375 14.296875 L 375 360.796875 L 0 360.796875 Z M 0 14.296875 " clip-rule="nonzero"/></clipPath></defs><g clip-path="url(#44b08ea791)"><path fill="#000000" d="M 370.816406 141.441406 C 339.183594 198.277344 303.265625 252.332031 265.253906 305.03125 C 261.460938 310.28125 257.277344 315.234375 253.15625 320.230469 C 251.304688 322.488281 249.394531 324.71875 246.039062 325.003906 C 245.148438 325.078125 244.1875 326.3125 243.585938 327.230469 C 240.949219 331.265625 237.355469 334.246094 233.515625 337.03125 C 217.914062 348.351562 200.261719 354.640625 181.375 357.277344 C 169.292969 358.945312 157.074219 359.519531 144.914062 360.585938 C 127.609375 360.269531 110.421875 359.535156 93.390625 356.523438 C 73.40625 353 54.941406 345.910156 38.359375 333.960938 C 21.757812 321.992188 11.496094 305.738281 5.476562 286.558594 C 3.625 280.691406 2.394531 274.59375 1.308594 268.527344 C -0.03125 261.105469 1.25 253.851562 3.957031 246.867188 C 8.003906 236.390625 12.835938 226.335938 19.53125 217.246094 C 21.625 214.398438 23.730469 211.660156 23.550781 207.730469 C 23.488281 206.285156 24.453125 204.632812 25.339844 203.351562 C 55.574219 159.445312 85.683594 115.460938 116.203125 71.765625 C 127.488281 55.597656 139.722656 40.082031 151.535156 24.261719 C 153.207031 22.03125 154.859375 19.789062 156.636719 17.636719 C 158.832031 14.972656 161.859375 14.507812 165.03125 14.988281 C 172.015625 16.042969 178.984375 17.140625 185.933594 18.359375 C 240.832031 27.992188 295.214844 40.066406 349.28125 53.550781 C 352.277344 54.304688 355.179688 55.417969 358.207031 56.019531 C 362.765625 56.921875 365.65625 59.585938 366.769531 63.9375 C 368.378906 70.199219 370.019531 76.492188 371.058594 82.859375 C 373.34375 96.828125 374.609375 110.886719 374.878906 125.066406 C 374.953125 130.949219 373.734375 136.1875 370.816406 141.441406 Z M 370.816406 141.441406 " fill-opacity="1" fill-rule="nonzero"/></g><path fill="#f9b7b2" d="M 281.957031 43.574219 C 303.582031 48.660156 325.339844 53.792969 347.101562 58.851562 C 349.960938 59.511719 352.894531 60.128906 355.796875 60.175781 C 359.378906 60.234375 361.382812 61.980469 362.179688 65.128906 C 363.5625 70.546875 364.949219 75.980469 365.851562 81.488281 C 368.320312 96.480469 369.476562 111.609375 369.6875 126.796875 C 369.734375 129.625 369.296875 132.167969 367.882812 134.804688 C 347.613281 172.464844 324.84375 208.589844 301.097656 244.097656 C 285.945312 266.738281 270.203125 288.984375 254.660156 311.367188 C 252.582031 314.363281 250.128906 317.101562 247.347656 320.625 C 246.757812 315.203125 246.324219 310.644531 245.78125 306.097656 C 243.902344 290.277344 240.257812 274.804688 236.632812 259.316406 C 235.957031 256.441406 234.464844 255.265625 231.246094 254.664062 C 222.59375 253.054688 214.074219 250.675781 205.527344 248.492188 C 187.574219 243.902344 169.652344 239.25 151.714844 234.613281 C 150.601562 234.328125 149.535156 233.90625 148.195312 233.457031 C 191.757812 169.394531 234.328125 105.046875 281.957031 43.574219 Z M 350.382812 74.324219 C 347.085938 76.191406 346.003906 78.855469 344.574219 81.1875 C 311.421875 135.136719 278.316406 189.113281 245.195312 243.089844 C 244.578125 244.097656 243.839844 245.046875 243.402344 246.128906 C 243.148438 246.761719 243.359375 247.574219 243.359375 248.3125 C 244.894531 247.605469 245.78125 246.671875 246.472656 245.617188 C 248.851562 242.066406 251.242188 238.527344 253.5 234.902344 C 284.921875 184.550781 316.328125 134.203125 347.703125 83.808594 C 348.9375 81.835938 349.792969 79.59375 350.636719 77.410156 C 350.878906 76.730469 350.515625 75.828125 350.382812 74.324219 Z M 350.382812 74.324219 " fill-opacity="1" fill-rule="nonzero"/><path fill="#ffffff" d="M 231.863281 259.828125 C 233.832031 269.085938 235.925781 278.417969 237.777344 287.792969 C 239.625 297.171875 241.175781 306.625 242.9375 316.019531 C 243.496094 318.96875 242.996094 321.164062 240.664062 323.46875 C 226.054688 337.933594 208.328125 346.226562 188.476562 350.410156 C 169.050781 354.507812 149.324219 354.761719 129.578125 354.371094 C 115.132812 354.070312 100.808594 352.789062 86.664062 349.597656 C 67.6875 345.308594 50.5 337.363281 35.605469 324.734375 C 22.300781 313.472656 14.792969 298.632812 9.855469 282.316406 C 8.578125 278.101562 7.886719 273.722656 6.9375 269.414062 C 5.3125 261.949219 6.5625 254.769531 9.164062 247.753906 C 12.820312 237.925781 17.246094 228.488281 23.339844 219.894531 C 24.695312 217.984375 25.941406 215.949219 26.890625 213.828125 C 27.613281 212.234375 28.578125 211.417969 30.214844 211.585938 C 33.859375 211.945312 37.574219 212.035156 41.113281 212.878906 C 63.96875 218.375 86.84375 223.882812 109.625 229.664062 C 144.957031 238.617188 180.214844 247.832031 215.550781 256.816406 C 220.667969 258.113281 225.933594 258.757812 231.863281 259.828125 Z M 220.636719 269.265625 C 218.515625 269.144531 217.761719 270.785156 216.722656 271.839844 C 209.441406 279.183594 201.523438 285.703125 192.722656 291.195312 C 172.257812 303.960938 149.578125 308.628906 125.90625 309.710938 C 114.277344 310.238281 102.660156 309.695312 91.132812 307.933594 C 76.820312 305.765625 62.945312 302.109375 49.824219 295.863281 C 44.796875 293.484375 40.464844 290.234375 37.140625 285.824219 C 34.039062 281.714844 31.269531 277.378906 28.335938 273.164062 C 27.765625 272.351562 27.054688 271.613281 25.867188 270.183594 C 25.867188 271.6875 25.71875 272.171875 25.882812 272.488281 C 31.886719 284.5 39.652344 294.914062 52.835938 299.6875 C 61.246094 302.742188 69.734375 305.78125 78.429688 307.800781 C 101.769531 313.21875 125.320312 313.519531 149.007812 309.832031 C 165.964844 307.195312 181.75 301.582031 196.316406 292.582031 C 204.867188 287.296875 212.871094 281.320312 218.980469 273.148438 C 219.792969 272.082031 221.132812 271.132812 220.636719 269.265625 Z M 220.636719 269.265625 " fill-opacity="1" fill-rule="nonzero"/><path fill="#f3757a" d="M 267.722656 40.863281 C 267.089844 41.839844 266.683594 42.578125 266.171875 43.257812 C 242.410156 74.234375 220.378906 106.445312 198.964844 139.0625 C 183.707031 162.335938 168.796875 185.816406 153.640625 209.160156 C 148.839844 216.550781 143.785156 223.792969 138.835938 231.121094 C 137.449219 230.882812 136.441406 230.761719 135.464844 230.519531 C 107.761719 223.777344 80.085938 216.957031 52.351562 210.320312 C 44.707031 208.484375 37.046875 206.4375 28.757812 207.191406 C 29.074219 206.363281 29.132812 205.925781 29.359375 205.59375 C 43.984375 184.566406 58.628906 163.554688 73.253906 142.527344 C 99.648438 104.5625 126.042969 66.601562 153.808594 29.617188 C 155.386719 27.511719 156.800781 25.253906 158.203125 23.011719 C 160.171875 19.835938 161.195312 19.234375 164.6875 19.925781 C 198.273438 26.609375 231.863281 33.320312 265.449219 40.035156 C 266.15625 40.1875 266.789062 40.515625 267.722656 40.863281 Z M 267.722656 40.863281 " fill-opacity="1" fill-rule="nonzero"/><path fill="#f05161" d="M 277.113281 42.957031 C 276.824219 43.601562 276.71875 44.039062 276.464844 44.386719 C 230.492188 105.601562 187.515625 168.925781 145.109375 232.867188 C 143.753906 232.476562 142.6875 232.175781 141.648438 231.875 C 141.769531 231.347656 141.769531 231.046875 141.902344 230.835938 C 150.558594 217.863281 159.421875 205.023438 167.832031 191.898438 C 196.738281 146.785156 226.082031 101.960938 257.941406 58.835938 C 261.355469 54.214844 264.878906 49.683594 268.382812 45.136719 C 271.558594 41 271.574219 41.011719 277.113281 42.957031 Z M 277.113281 42.957031 " fill-opacity="1" fill-rule="nonzero"/></svg>