<svg xmlns="http://www.w3.org/2000/svg" xmlns:xlink="http://www.w3.org/1999/xlink" width="500" zoomAndPan="magnify" viewBox="0 0 375 374.999991" height="500" preserveAspectRatio="xMidYMid meet" version="1.0"><defs><clipPath id="4c1be0d4ec"><path d="M 0 0.148438 L 374.984375 0.148438 L 374.984375 374.851562 L 0 374.851562 Z M 0 0.148438 " clip-rule="nonzero"/></clipPath></defs><path fill="#dd6f6f" d="M 307.839844 15.316406 C 305.71875 13.195312 302.867188 12.019531 299.832031 12.019531 C 296.808594 12.019531 293.976562 13.191406 291.859375 15.304688 L 259.179688 47.984375 L 326.921875 115.726562 L 359.605469 83.046875 C 361.722656 80.929688 362.886719 78.097656 362.890625 75.074219 C 362.890625 72.035156 361.722656 69.203125 359.605469 67.082031 L 307.839844 15.316406 " fill-opacity="1" fill-rule="nonzero"/><path fill="#e4dcc9" d="M 81.496094 297.683594 C 79.421875 297.121094 77.785156 295.5 77.226562 293.414062 L 71.179688 270.960938 L 48.617188 261.730469 L 27.382812 324.667969 L 50.246094 347.527344 L 113.183594 326.304688 L 103.949219 303.71875 L 81.496094 297.683594 " fill-opacity="1" fill-rule="nonzero"/><path fill="#fbac0f" d="M 272.695312 78.597656 L 257.226562 94.0625 L 82.992188 268.300781 L 87.996094 286.910156 L 106.605469 291.910156 L 280.84375 117.683594 L 296.3125 102.214844 L 272.695312 78.597656 " fill-opacity="1" fill-rule="nonzero"/><path fill="#f4d177" d="M 264.144531 70.046875 L 250.632812 56.535156 L 237.125 70.042969 L 55.648438 251.542969 L 74.808594 259.375 L 248.679688 85.511719 Z M 304.867188 110.769531 L 289.394531 126.238281 L 115.527344 300.09375 L 123.371094 319.273438 L 305.445312 137.207031 L 318.371094 124.277344 L 304.867188 110.769531 " fill-opacity="1" fill-rule="nonzero"/><g clip-path="url(#4c1be0d4ec)"><path fill="#000000" d="M 359.605469 83.046875 L 326.921875 115.726562 L 259.179688 47.984375 L 291.859375 15.304688 C 293.976562 13.191406 296.808594 12.019531 299.832031 12.019531 C 302.867188 12.019531 305.71875 13.195312 307.839844 15.316406 L 359.605469 67.082031 C 361.722656 69.203125 362.890625 72.035156 362.890625 75.074219 C 362.886719 78.097656 361.722656 80.929688 359.605469 83.046875 Z M 305.445312 137.207031 L 123.371094 319.273438 L 115.527344 300.09375 L 289.394531 126.238281 L 304.867188 110.769531 L 318.371094 124.277344 Z M 50.246094 347.527344 L 27.382812 324.667969 L 48.617188 261.730469 L 71.179688 270.960938 L 77.226562 293.414062 C 77.785156 295.5 79.421875 297.121094 81.496094 297.683594 L 103.949219 303.71875 L 113.183594 326.304688 Z M 272.695312 78.597656 L 296.3125 102.214844 L 280.84375 117.683594 L 106.605469 291.910156 L 87.996094 286.910156 L 82.992188 268.300781 L 257.226562 94.0625 Z M 237.125 70.042969 L 250.632812 56.535156 L 264.144531 70.046875 L 248.679688 85.511719 L 74.808594 259.375 L 55.648438 251.542969 Z M 368.15625 58.53125 L 316.382812 6.761719 C 307.5625 -2.046875 292.109375 -2.054688 283.308594 6.753906 L 40.667969 249.417969 C 40.023438 250.0625 39.484375 250.890625 39.15625 251.941406 C 38.832031 252.992188 0.382812 366.867188 0.382812 366.867188 C 0.015625 367.957031 -0.707031 370.242188 1.839844 373.074219 C 4.128906 375.628906 7.410156 374.738281 8.042969 374.527344 C 8.042969 374.527344 122.269531 336.09375 123.148438 335.707031 C 124.023438 335.320312 124.910156 334.832031 125.492188 334.257812 L 368.148438 91.601562 C 372.558594 87.203125 374.988281 81.332031 374.988281 75.074219 C 374.988281 68.804688 372.558594 62.9375 368.15625 58.53125 " fill-opacity="1" fill-rule="nonzero"/></g></svg>