<svg xmlns="http://www.w3.org/2000/svg" xmlns:xlink="http://www.w3.org/1999/xlink" width="500" zoomAndPan="magnify" viewBox="0 0 375 374.999991" height="500" preserveAspectRatio="xMidYMid meet" version="1.0"><defs><clipPath id="d23e02725f"><path d="M 19.6875 83.386719 L 187.746094 83.386719 L 187.746094 375 L 19.6875 375 Z M 19.6875 83.386719 " clip-rule="nonzero"/></clipPath><clipPath id="30dba331dd"><path d="M 187.167969 83.386719 L 355.6875 83.386719 L 355.6875 375 L 187.167969 375 Z M 187.167969 83.386719 " clip-rule="nonzero"/></clipPath><clipPath id="dc46e49530"><path d="M 19.6875 0.0273438 L 355.6875 0.0273438 L 355.6875 167.894531 L 19.6875 167.894531 Z M 19.6875 0.0273438 " clip-rule="nonzero"/></clipPath></defs><g clip-path="url(#d23e02725f)"><path fill="#ff3131" d="M 187.699219 375.003906 L 19.6875 291.070312 L 19.6875 83.957031 L 187.699219 167.886719 L 187.699219 375.003906 " fill-opacity="1" fill-rule="nonzero"/></g><g clip-path="url(#30dba331dd)"><path fill="#00bf63" d="M 355.710938 291.070312 L 187.699219 375.003906 L 187.699219 167.886719 L 355.710938 83.957031 L 355.710938 291.070312 " fill-opacity="1" fill-rule="nonzero"/></g><g clip-path="url(#dc46e49530)"><path fill="#8c52ff" d="M 355.710938 83.957031 L 187.699219 167.886719 L 19.6875 83.957031 L 187.699219 0.0273438 L 355.710938 83.957031 " fill-opacity="1" fill-rule="nonzero"/></g><path fill="#ffffff" d="M 80.683594 281.347656 C 80.683594 277 82.164062 274.152344 85.128906 272.808594 C 88.097656 271.46875 91.894531 271.957031 96.523438 274.269531 C 101.148438 276.578125 104.945312 279.886719 107.910156 284.1875 C 110.875 288.496094 112.359375 292.824219 112.359375 297.167969 C 112.359375 301.457031 110.910156 304.265625 108.011719 305.605469 C 105.105469 306.949219 101.273438 306.429688 96.523438 304.058594 C 91.761719 301.675781 87.933594 298.371094 85.03125 294.128906 C 82.132812 289.890625 80.683594 285.632812 80.683594 281.347656 Z M 83.515625 252.824219 C 83.515625 243.703125 84.625 236.988281 86.84375 232.6875 C 89.058594 228.382812 93.117188 225.082031 99.015625 222.78125 C 104.910156 220.480469 108.835938 218.171875 110.796875 215.855469 C 112.75 213.539062 113.730469 210.554688 113.730469 206.898438 C 113.730469 195.878906 108.640625 187.824219 98.476562 182.746094 C 93.652344 180.335938 89.789062 179.890625 86.890625 181.414062 C 83.988281 182.933594 82.472656 186.269531 82.34375 191.425781 L 53.988281 177.261719 C 54.117188 164.878906 58.144531 157.144531 66.066406 154.066406 C 73.984375 150.980469 84.785156 152.855469 98.476562 159.695312 C 112.296875 166.597656 123.019531 175.296875 130.644531 185.785156 C 138.273438 196.277344 142.085938 207.617188 142.085938 219.804688 C 142.085938 225.34375 140.84375 229.957031 138.371094 233.640625 C 135.890625 237.320312 131.554688 240.617188 125.367188 243.519531 L 117.445312 247.09375 C 112.492188 249.375 109.65625 253.53125 108.9375 259.5625 L 108.550781 265.328125 L 83.515625 252.824219 " fill-opacity="1" fill-rule="nonzero"/><path fill="#ffffff" d="M 254.351562 298.265625 C 254.351562 293.917969 255.832031 289.59375 258.796875 285.289062 C 261.765625 280.988281 265.5625 277.675781 270.195312 275.367188 C 274.8125 273.054688 278.613281 272.570312 281.582031 273.910156 C 284.546875 275.25 286.03125 278.09375 286.03125 282.441406 C 286.03125 286.726562 284.578125 290.992188 281.679688 295.226562 C 278.773438 299.472656 274.945312 302.777344 270.195312 305.152344 C 265.429688 307.53125 261.601562 308.050781 258.699219 306.707031 C 255.800781 305.367188 254.351562 302.550781 254.351562 298.265625 Z M 257.183594 266.917969 C 257.183594 257.792969 258.292969 249.96875 260.511719 243.453125 C 262.726562 236.9375 266.785156 229.582031 272.683594 221.386719 C 278.578125 213.195312 282.507812 206.964844 284.464844 202.691406 C 286.417969 198.421875 287.398438 194.457031 287.398438 190.804688 C 287.398438 179.785156 282.3125 176.8125 272.144531 181.890625 C 267.320312 184.300781 263.457031 187.714844 260.558594 192.132812 C 257.65625 196.554688 256.140625 201.40625 256.011719 206.691406 L 227.65625 220.855469 C 227.785156 208.34375 231.8125 196.585938 239.734375 185.59375 C 247.65625 174.597656 258.457031 165.679688 272.144531 158.839844 C 285.960938 151.9375 296.6875 149.921875 304.3125 152.792969 C 311.941406 155.664062 315.753906 163.195312 315.753906 175.382812 C 315.753906 180.921875 314.515625 186.773438 312.039062 192.929688 C 309.558594 199.089844 305.226562 206.710938 299.035156 215.800781 L 291.113281 227.285156 C 286.160156 234.515625 283.324219 241.507812 282.605469 248.253906 L 282.214844 254.410156 L 257.183594 266.917969 " fill-opacity="1" fill-rule="nonzero"/><path fill="#ffffff" d="M 230.4375 115.101562 C 226.269531 113.015625 224.25 110.589844 224.382812 107.820312 C 224.515625 105.046875 226.804688 102.554688 231.238281 100.339844 C 235.664062 98.128906 240.65625 96.988281 246.199219 96.917969 C 251.75 96.851562 256.609375 97.859375 260.777344 99.945312 C 264.886719 101.992188 266.886719 104.386719 266.78125 107.105469 C 266.683594 109.832031 264.347656 112.335938 259.796875 114.609375 C 255.234375 116.886719 250.234375 118.050781 244.773438 118.101562 C 239.324219 118.152344 234.546875 117.152344 230.4375 115.101562 Z M 204.445312 99.40625 C 195.699219 95.035156 189.792969 91.019531 186.730469 87.371094 C 183.664062 83.722656 182.441406 79.226562 183.058594 73.890625 C 183.675781 68.554688 183.34375 64.632812 182.0625 62.117188 C 180.773438 59.605469 178.382812 57.472656 174.878906 55.722656 C 164.3125 50.441406 154.152344 50.238281 144.417969 55.101562 C 139.796875 57.410156 137.519531 59.96875 137.59375 62.777344 C 137.65625 65.589844 140.132812 68.277344 145.015625 70.839844 L 117.859375 84.40625 C 106.046875 78.378906 100.558594 71.785156 101.398438 64.625 C 102.234375 57.464844 109.203125 50.609375 122.316406 44.058594 C 135.550781 37.449219 149.027344 33.917969 162.734375 33.46875 C 176.441406 33.019531 189.144531 35.714844 200.828125 41.554688 C 206.140625 44.207031 209.96875 47.304688 212.316406 50.847656 C 214.660156 54.390625 215.742188 59.078125 215.5625 64.910156 L 215.195312 72.304688 C 215.011719 76.957031 217.640625 80.984375 223.078125 84.386719 L 228.425781 87.429688 L 204.445312 99.40625 " fill-opacity="1" fill-rule="nonzero"/></svg>